<?xml version="1.0" encoding="utf-8"?>
<!-- Generator: Adobe Illustrator 28.0.0, SVG Export Plug-In . SVG Version: 6.00 Build 0)  -->
<svg version="1.1" id="Layer_1" xmlns="http://www.w3.org/2000/svg" xmlns:xlink="http://www.w3.org/1999/xlink" x="0px" y="0px"
	 viewBox="0 0 200 40" style="enable-background:new 0 0 200 40;" xml:space="preserve">
<style type="text/css">
	.st0{fill:#25317E;}
</style>
<g>
	<g>
		<g>
			<path class="st0" d="M145.1,7.2c-0.2-0.2-0.5-0.4-0.8-0.5c-0.6-0.3-1.4-0.3-2,0c-0.3,0.1-0.6,0.3-0.8,0.5
				c-0.2,0.2-0.4,0.5-0.6,0.8c-0.1,0.3-0.2,0.6-0.2,1v8.4h-13.2V8.9c0-0.4-0.1-0.7-0.2-1c-0.1-0.3-0.3-0.6-0.6-0.8
				c-0.2-0.2-0.5-0.4-0.8-0.5c-0.6-0.3-1.3-0.3-2,0c-0.3,0.1-0.6,0.3-0.8,0.5c-0.2,0.2-0.4,0.5-0.5,0.8c-0.1,0.3-0.2,0.6-0.2,1v21.7
				c0,0.3,0.1,0.7,0.2,1c0.1,0.3,0.3,0.6,0.5,0.8c0.2,0.2,0.5,0.4,0.8,0.5c0.6,0.3,1.4,0.3,2,0c0.3-0.1,0.6-0.3,0.8-0.5
				c0.2-0.2,0.4-0.5,0.6-0.8c0.1-0.3,0.2-0.6,0.2-1v-8.3h13.2v8.3c0,0.3,0.1,0.7,0.2,1c0.1,0.3,0.3,0.6,0.6,0.8
				c0.2,0.2,0.5,0.4,0.8,0.5c0.3,0.1,0.6,0.2,1,0.2c0.4,0,0.7-0.1,1-0.2c0.3-0.1,0.6-0.3,0.8-0.5c0.2-0.2,0.4-0.5,0.5-0.8
				c0.1-0.3,0.2-0.6,0.2-1V8.9c0-0.4-0.1-0.7-0.2-1C145.5,7.6,145.3,7.4,145.1,7.2z"/>
			<path class="st0" d="M166.4,14.3c-0.2-0.2-0.5-0.4-0.8-0.5c-0.6-0.3-1.3-0.3-2,0c-0.3,0.1-0.6,0.3-0.8,0.5
				c-0.2,0.2-0.4,0.5-0.6,0.8c-0.1,0.3-0.2,0.6-0.2,1v7.5c0,0.7-0.1,1.3-0.3,1.9c-0.2,0.6-0.5,1.1-0.8,1.5c-0.4,0.4-0.8,0.8-1.3,1
				c-1,0.5-2.5,0.5-3.6,0c-0.6-0.2-1.1-0.6-1.5-1c-0.4-0.4-0.7-0.9-1-1.5c-0.2-0.6-0.4-1.2-0.4-1.8v-7.6c0-0.4-0.1-0.7-0.2-1
				c-0.1-0.3-0.3-0.6-0.5-0.8c-0.2-0.2-0.5-0.4-0.8-0.5c-0.6-0.3-1.3-0.3-2,0c-0.3,0.1-0.6,0.3-0.8,0.5c-0.2,0.2-0.4,0.5-0.5,0.8
				c-0.1,0.3-0.2,0.6-0.2,1v7.6c0,1.3,0.3,2.6,0.8,3.8c0.5,1.2,1.2,2.2,2.1,3.1c0.9,0.9,1.9,1.6,3.1,2.1c1.2,0.5,2.4,0.8,3.8,0.8
				c1.3,0,2.6-0.3,3.7-0.8c1.1-0.5,2.1-1.2,2.9-2.1c0.8-0.9,1.5-1.9,1.9-3.1c0.5-1.2,0.7-2.5,0.7-3.8v-7.5c0-0.4-0.1-0.7-0.2-1
				C166.8,14.8,166.7,14.5,166.4,14.3z"/>
			<path class="st0" d="M188.6,19.5c-0.5-1.2-1.2-2.3-2.1-3.2c-0.9-0.9-2-1.6-3.2-2.1c-1.2-0.5-2.5-0.8-3.9-0.8c-1,0-2,0.1-2.9,0.4
				c-0.7,0.2-1.4,0.5-2.1,0.9V8.9c0-0.4-0.1-0.7-0.2-1s-0.3-0.6-0.5-0.8c-0.2-0.2-0.5-0.4-0.8-0.6c-0.6-0.3-1.4-0.3-2,0
				c-0.3,0.1-0.6,0.3-0.8,0.6c-0.2,0.2-0.4,0.5-0.5,0.8c-0.1,0.3-0.2,0.7-0.2,1v14.5c0,1.4,0.3,2.7,0.8,3.9c0.5,1.2,1.3,2.3,2.2,3.2
				c0.9,0.9,2,1.6,3.2,2.2c1.2,0.5,2.5,0.8,3.9,0.8c1.4,0,2.7-0.3,3.9-0.8c1.2-0.5,2.3-1.2,3.2-2.2c0.9-0.9,1.6-2,2.1-3.2
				c0.5-1.2,0.8-2.5,0.8-3.9C189.4,22,189.1,20.7,188.6,19.5z M184.3,23.4c0,0.7-0.1,1.3-0.4,1.9c-0.3,0.6-0.6,1.1-1.1,1.6
				c-0.5,0.5-1,0.8-1.6,1.1c-1.2,0.5-2.7,0.5-3.9,0c-0.6-0.3-1.1-0.6-1.6-1.1c-0.5-0.5-0.8-1-1.1-1.6c-0.3-0.6-0.4-1.3-0.4-1.9
				c0-0.7,0.1-1.3,0.4-1.9c0.3-0.6,0.6-1.1,1.1-1.6c0.5-0.4,1-0.8,1.6-1.1c0.6-0.3,1.2-0.4,1.9-0.4s1.3,0.1,1.9,0.4
				c0.6,0.3,1.1,0.6,1.6,1.1c0.4,0.4,0.8,1,1.1,1.6C184.2,22,184.3,22.7,184.3,23.4z"/>
		</g>
		<path class="st0" d="M100.1,27.4c-0.1-0.3-0.3-0.6-0.6-0.9c-0.5-0.4-1-0.6-1.6-0.6c-0.4,0-0.7,0.1-1,0.2c-0.3,0.2-0.6,0.3-0.8,0.6
			c-0.4,0.4-0.9,0.7-1.4,0.8c-0.5,0.2-1.1,0.3-1.7,0.3c-0.7,0-1.3-0.1-1.9-0.4c-0.6-0.2-1.1-0.6-1.5-1c-0.4-0.4-0.8-0.9-1-1.5
			c-0.3-0.6-0.4-1.2-0.4-1.9v-4.7h6.6c0.3,0,0.7-0.1,1-0.2c0.3-0.1,0.6-0.3,0.8-0.5c0.2-0.2,0.4-0.5,0.5-0.8c0.1-0.3,0.2-0.6,0.2-1
			c0-0.3-0.1-0.7-0.2-1c-0.1-0.3-0.3-0.6-0.5-0.8c-0.2-0.2-0.5-0.4-0.8-0.5c-0.3-0.1-0.6-0.2-1-0.2h-6.6v-3.2c0-0.3-0.1-0.7-0.2-1
			c-0.1-0.3-0.3-0.6-0.5-0.8c-0.2-0.2-0.5-0.4-0.8-0.5c-0.6-0.3-1.3-0.3-1.9,0c-0.3,0.1-0.6,0.3-0.8,0.5c-0.2,0.2-0.4,0.5-0.5,0.8
			c-0.1,0.3-0.2,0.6-0.2,1V23c0,1.4,0.3,2.6,0.8,3.8c0.5,1.2,1.2,2.2,2.1,3.1c0.9,0.9,1.9,1.6,3.1,2.1c1.2,0.5,2.5,0.8,3.8,0.8
			c1.2,0,2.4-0.2,3.5-0.6c1.1-0.4,2-1,2.9-1.8c0.3-0.3,0.5-0.5,0.6-0.9c0.1-0.3,0.2-0.7,0.3-1C100.2,28.1,100.2,27.8,100.1,27.4z"/>
		<path class="st0" d="M57.7,19.5c-0.5-1.2-1.2-2.2-2.1-3.1c-0.9-0.9-1.9-1.6-3.1-2.1c-1.2-0.5-2.5-0.8-3.8-0.8
			c-1.3,0-2.6,0.3-3.8,0.8c-1.2,0.5-2.2,1.2-3.1,2.1c-0.9,0.9-1.6,1.9-2.1,3.1c-0.5,1.2-0.8,2.5-0.8,3.8c0,1.3,0.3,2.6,0.8,3.8
			c0.5,1.2,1.2,2.2,2.1,3.1c0.9,0.9,1.9,1.6,3.1,2.1c1.2,0.5,2.5,0.8,3.8,0.8c1,0,2-0.2,2.9-0.5c0.8-0.3,1.5-0.7,2.2-1.1
			c0.2,0.3,0.4,0.6,0.7,0.9c0.4,0.4,0.9,0.5,1.5,0.5c0.3,0,0.7-0.1,1-0.2c0.3-0.1,0.6-0.3,0.8-0.5c0.2-0.2,0.4-0.5,0.5-0.8
			c0.1-0.3,0.2-0.6,0.2-1v-7.1C58.4,21.9,58.2,20.6,57.7,19.5z M53.4,23.3c0,0.7-0.1,1.3-0.4,1.9c-0.2,0.6-0.6,1.1-1,1.6
			c-0.4,0.4-1,0.8-1.5,1c-1.2,0.5-2.6,0.5-3.8,0c-0.6-0.3-1.1-0.6-1.5-1.1c-0.4-0.4-0.8-1-1.1-1.6c-0.3-0.6-0.4-1.2-0.4-1.9
			c0-0.7,0.1-1.3,0.4-1.9c0.3-0.6,0.6-1.1,1-1.5c0.4-0.4,1-0.8,1.6-1c0.6-0.3,1.2-0.4,1.9-0.4c0.7,0,1.3,0.1,1.9,0.4
			c0.6,0.3,1.1,0.6,1.5,1c0.4,0.4,0.8,1,1,1.5C53.3,22,53.4,22.6,53.4,23.3z"/>
		<path class="st0" d="M72.8,14.4c-0.5-0.5-1.1-0.7-1.9-0.7c-1.4,0-2.7,0.3-4,0.8c-1.2,0.5-2.3,1.3-3.3,2.2c-0.9,0.9-1.7,2-2.2,3.3
			c-0.5,1.2-0.8,2.6-0.8,4v6.5c0,0.3,0.1,0.7,0.2,1c0.1,0.3,0.3,0.6,0.6,0.8c0.2,0.2,0.5,0.4,0.8,0.5c0.3,0.1,0.6,0.2,1,0.2
			c0.3,0,0.7-0.1,1-0.2c0.3-0.1,0.5-0.3,0.8-0.5c0.2-0.2,0.4-0.5,0.5-0.8c0.1-0.3,0.2-0.6,0.2-1v-6.5c0-0.7,0.1-1.4,0.4-2
			c0.3-0.6,0.7-1.2,1.2-1.7c0.5-0.5,1-0.9,1.7-1.1c0.6-0.3,1.3-0.4,2.1-0.4c0.3,0,0.7-0.1,1-0.2c0.3-0.1,0.6-0.3,0.8-0.5
			c0.2-0.2,0.4-0.5,0.6-0.8c0.1-0.3,0.2-0.6,0.2-1C73.4,15.4,73.2,14.9,72.8,14.4z"/>
		<g>
			<path class="st0" d="M79.5,14.4c-0.2-0.2-0.5-0.4-0.8-0.5c-0.6-0.3-1.3-0.3-2,0c-0.3,0.1-0.6,0.3-0.8,0.5
				c-0.2,0.2-0.4,0.5-0.5,0.8c-0.1,0.3-0.2,0.6-0.2,1v14.3c0,0.3,0.1,0.7,0.2,1c0.1,0.3,0.3,0.6,0.5,0.8c0.2,0.2,0.5,0.4,0.8,0.5
				c0.3,0.1,0.6,0.2,1,0.2c0.3,0,0.7-0.1,1-0.2c0.3-0.1,0.6-0.3,0.8-0.5c0.2-0.2,0.4-0.5,0.5-0.8c0.1-0.3,0.2-0.6,0.2-1V16.2
				c0-0.3-0.1-0.7-0.2-1C79.9,14.9,79.7,14.6,79.5,14.4z"/>
			<path class="st0" d="M80.2,8.5c-0.1-0.3-0.3-0.6-0.6-0.9c-0.2-0.2-0.5-0.4-0.9-0.6c-0.7-0.3-1.4-0.3-2.1,0
				c-0.3,0.1-0.6,0.3-0.9,0.6c-0.2,0.2-0.4,0.5-0.6,0.9C75,8.8,75,9.2,75,9.6c0,0.4,0.1,0.7,0.2,1c0.1,0.3,0.3,0.6,0.6,0.8
				c0.2,0.2,0.5,0.4,0.9,0.6c0.3,0.1,0.7,0.2,1,0.2c0.4,0,0.7-0.1,1-0.2c0.3-0.1,0.6-0.3,0.9-0.6c0.2-0.2,0.4-0.5,0.6-0.9
				c0.1-0.3,0.2-0.7,0.2-1C80.4,9.2,80.3,8.8,80.2,8.5z"/>
		</g>
		<g>
			<path class="st0" d="M119.1,19.5c-0.5-1.2-1.2-2.2-2.1-3.1c-0.9-0.9-1.9-1.6-3.1-2.1c-1.2-0.5-2.5-0.8-3.8-0.8
				c-1.3,0-2.6,0.3-3.8,0.8c-1.2,0.5-2.2,1.2-3.1,2.1c-0.9,0.9-1.6,1.9-2.1,3.1c-0.5,1.2-0.8,2.5-0.8,3.8c0,1.3,0.3,2.6,0.8,3.8
				c0.5,1.2,1.2,2.2,2.1,3.1c0.9,0.9,1.9,1.6,3.1,2.1c1.2,0.5,2.5,0.8,3.8,0.8c1,0,2-0.2,2.9-0.5c0.8-0.3,1.5-0.7,2.2-1.1
				c0.2,0.3,0.4,0.6,0.7,0.9c0.4,0.4,0.9,0.5,1.5,0.5c0.3,0,0.7-0.1,1-0.2c0.3-0.1,0.6-0.3,0.8-0.5c0.2-0.2,0.4-0.5,0.5-0.8
				c0.1-0.3,0.2-0.6,0.2-1v-7.1C119.9,21.9,119.6,20.6,119.1,19.5z M114.9,23.3c0,0.7-0.1,1.3-0.4,1.9c-0.2,0.6-0.6,1.1-1,1.6
				c-0.4,0.4-1,0.8-1.5,1c-1.2,0.5-2.6,0.5-3.8,0c-0.6-0.3-1.1-0.6-1.5-1.1c-0.4-0.4-0.8-1-1.1-1.6c-0.3-0.6-0.4-1.2-0.4-1.9
				c0-0.7,0.1-1.3,0.4-1.9c0.3-0.6,0.6-1.1,1-1.5c0.4-0.4,1-0.8,1.6-1c0.6-0.3,1.2-0.4,1.9-0.4c0.7,0,1.3,0.1,1.9,0.4
				c0.6,0.3,1.1,0.6,1.5,1c0.4,0.4,0.8,1,1,1.5C114.8,22,114.9,22.6,114.9,23.3z"/>
			<g>
				<path class="st0" d="M113,23.2c-0.1,0-0.4,0.2-1,0.8c-0.8,0.7-1.4,1-2.2,1c-0.3,0-0.5,0-0.7-0.1c-0.4-0.2-0.9-0.5-1.2-0.8
					c-0.3-0.3-0.4-0.4-0.7-0.4c-0.6,0-0.4,0.7,0.4,1.4c0.4,0.4,1,0.6,1.7,0.8c0.4,0.1,1.3,0.1,1.8-0.1c0.8-0.3,1.4-0.6,1.9-1.2
					c0.3-0.3,0.4-0.4,0.5-0.7c0.1-0.3,0.1-0.4,0.1-0.5C113.3,23.2,113.1,23.2,113,23.2z"/>
				<path class="st0" d="M108.7,21c-0.1,0.1-0.2,0.5-0.1,0.9c0,0.3,0.2,0.8,0.4,0.9c0.1,0,0.1,0.1,0.2,0.1c0.1,0,0.3-0.2,0.3-0.3
					c0,0,0-0.2,0.1-0.3c0.1-0.3,0.1-0.9-0.1-1C109.3,20.9,108.9,20.8,108.7,21z"/>
				<path class="st0" d="M111.4,22.4c0.1-0.1,0.2-0.6,0.3-0.9c0.1-0.4-0.1-0.7-0.4-0.9c-0.2-0.1-0.4-0.1-0.5,0
					c-0.2,0.1-0.2,0.6-0.1,1.1c0.1,0.5,0.2,0.6,0.3,0.7h0C111.1,22.5,111.3,22.5,111.4,22.4z"/>
			</g>
		</g>
	</g>
	<g>
		<path class="st0" d="M37.8,13.8c-0.3-0.5-0.6-1.1-1-1.7L36.7,12c-2.6-4-6.9-6.4-11.6-6.4c-7.7,0-13.9,6.4-13.9,14.2
			S17.5,34,25.1,34c4.3,0,8.3-2,11-5.5l0.1-0.1c1.3-1.8,1.2-4-0.4-5.4c-1.6-1.5-3.7-1.5-5.5-0.1L27.7,25c-1.9,1.6-2.2,1.7-4.4,0.4
			c-2.1-1.3-4.2-2.8-5.4-5.3c-1-2.2-0.7-4.1,1-5.7c1.6-1.5,3.9-1.6,5.6-0.3l0.3,0.2c0.2,0.2,0.4,0.4,0.5,0.4c0,0,0.2-0.1,0.6-0.6
			c0.7-0.9,1.7-1.2,2.9-1.1c1.6,0.2,3.2,1.5,3.9,3.1c0.3,0.7,0.9,1.2,1.6,1.5c0.6,0.3,1.3,0.2,1.9,0c0.8-0.4,1.4-1,1.7-1.7
			C38.2,15.2,38.1,14.5,37.8,13.8z"/>
		<path class="st0" d="M22.4,14.7c-1.9-0.2-3.2,0.7-3.7,2.2c-0.5,1.7,0.3,3.7,2,4.6C19.3,18.8,18.7,16.4,22.4,14.7z"/>
	</g>
</g>
</svg>
